<svg version="1.1" xmlns="http://www.w3.org/2000/svg" viewBox="0 0 142.0125511859294 66.29984193901703" width="426.0376535577882" height="198.89952581705109" filter="invert(93%) hue-rotate(180deg)">
  <!-- svg-source:excalidraw -->
  
  <defs>
    <style class="style-fonts">
      @font-face {
        font-family: "Virgil";
        src: url("https://excalidraw.com/Virgil.woff2");
      }
      @font-face {
        font-family: "Cascadia";
        src: url("https://excalidraw.com/Cascadia.woff2");
      }
    </style>
  </defs>
  <g stroke-linecap="round" transform="translate(10 21.335511866017555) rotate(0 22.298182854617153 14.518419555528396)"><path d="M7.26 0 M7.26 0 C17.08 0, 26.9 0, 37.34 0 M7.26 0 C18.75 0, 30.24 0, 37.34 0 M37.34 0 C42.18 0, 44.6 2.42, 44.6 7.26 M37.34 0 C42.18 0, 44.6 2.42, 44.6 7.26 M44.6 7.26 C44.6 11.48, 44.6 15.69, 44.6 21.78 M44.6 7.26 C44.6 10.46, 44.6 13.66, 44.6 21.78 M44.6 21.78 C44.6 26.62, 42.18 29.04, 37.34 29.04 M44.6 21.78 C44.6 26.62, 42.18 29.04, 37.34 29.04 M37.34 29.04 C25.51 29.04, 13.69 29.04, 7.26 29.04 M37.34 29.04 C29.88 29.04, 22.42 29.04, 7.26 29.04 M7.26 29.04 C2.42 29.04, 0 26.62, 0 21.78 M7.26 29.04 C2.42 29.04, 0 26.62, 0 21.78 M0 21.78 C0 17.47, 0 13.15, 0 7.26 M0 21.78 C0 18.37, 0 14.97, 0 7.26 M0 7.26 C0 2.42, 2.42 0, 7.26 0 M0 7.26 C0 2.42, 2.42 0, 7.26 0" stroke="#1e1e1e" stroke-width="4" fill="none"></path></g><g stroke-linecap="round"><g transform="translate(29.3602555777793 29.089619872436174) rotate(0 0 5.10979246040165)"><path d="M0 0 C0 1.7, 0 8.52, 0 10.22 M0 0 C0 1.7, 0 8.52, 0 10.22" stroke="#1e1e1e" stroke-width="4" fill="none"></path></g></g><mask></mask><g stroke-linecap="round"><g transform="translate(18.392366875373455 50.498524354779875) rotate(0 3.9171132528549606 2.205921323980135)"><path d="M0 0 C1.31 0.74, 6.53 3.68, 7.83 4.41 M0 0 C1.31 0.74, 6.53 3.68, 7.83 4.41" stroke="#1e1e1e" stroke-width="4" fill="none"></path></g></g><mask></mask><g stroke-linecap="round"><g transform="translate(26.14675271649071 54.80698243789982) rotate(0 -0.9269868403728196 -1.7707826051934035)"><path d="M0 0 C-0.31 -0.59, -1.54 -2.95, -1.85 -3.54 M0 0 C-0.31 -0.59, -1.54 -2.95, -1.85 -3.54" stroke="#1e1e1e" stroke-width="4" fill="none"></path></g></g><mask></mask><g stroke-linecap="round"><g transform="translate(21.62933552794493 50.89732921047914) rotate(0 1.7673981927130171 1.2944311516510538)"><path d="M0 0 C0.59 0.48, 3.29 2.92, 3.52 2.87 C3.75 2.82, 1.73 0.24, 1.38 -0.28 M0 0 C0.59 0.48, 3.29 2.92, 3.52 2.87 C3.75 2.82, 1.73 0.24, 1.38 -0.28" stroke="#1e1e1e" stroke-width="4" fill="none"></path></g></g><mask></mask><g stroke-linecap="round"><g transform="translate(29.644177665501502 29.10395024445552) rotate(0 0 5.10979246040165)"><path d="M0 0 C0 1.7, 0 8.52, 0 10.22 M0 0 C0 1.7, 0 8.52, 0 10.22" stroke="#1e1e1e" stroke-width="4" fill="none"></path></g></g><mask></mask><g stroke-linecap="round"><g transform="translate(30.045883283832836 29.115532835760746) rotate(0 0 5.10979246040165)"><path d="M0 0 C0 1.7, 0 8.52, 0 10.22 M0 0 C0 1.7, 0 8.52, 0 10.22" stroke="#1e1e1e" stroke-width="4" fill="none"></path></g></g><mask></mask><g stroke-linecap="round"><g transform="translate(30.32980537155504 29.12986320778009) rotate(0 0 5.10979246040165)"><path d="M0 0 C0 1.7, 0 8.52, 0 10.22 M0 0 C0 1.7, 0 8.52, 0 10.22" stroke="#1e1e1e" stroke-width="4" fill="none"></path></g></g><mask></mask><g stroke-linecap="round"><g transform="translate(19.62219356383025 29.07908104860337) rotate(0 0 5.1097924604017635)"><path d="M0 0 C0 1.7, 0 8.52, 0 10.22 M0 0 C0 1.7, 0 8.52, 0 10.22" stroke="#1e1e1e" stroke-width="4" fill="none"></path></g></g><mask></mask><g stroke-linecap="round"><g transform="translate(19.906115651552682 29.09341142062283) rotate(0 0 5.1097924604017635)"><path d="M0 0 C0 1.7, 0 8.52, 0 10.22 M0 0 C0 1.7, 0 8.52, 0 10.22" stroke="#1e1e1e" stroke-width="4" fill="none"></path></g></g><mask></mask><g stroke-linecap="round"><g transform="translate(20.307821269884016 29.104994011927943) rotate(0 0 5.1097924604017635)"><path d="M0 0 C0 1.7, 0 8.52, 0 10.22 M0 0 C0 1.7, 0 8.52, 0 10.22" stroke="#1e1e1e" stroke-width="4" fill="none"></path></g></g><mask></mask><g stroke-linecap="round"><g transform="translate(20.59174335760622 29.119324383947287) rotate(0 0 5.1097924604017635)"><path d="M0 0 C0 1.7, 0 8.52, 0 10.22 M0 0 C0 1.7, 0 8.52, 0 10.22" stroke="#1e1e1e" stroke-width="4" fill="none"></path></g></g><mask></mask><g transform="translate(60.38736289814051 10) rotate(0 17.578125 12)"><text x="0" y="0" font-family="Cascadia, Segoe UI Emoji" font-size="20px" fill="#1e1e1e" text-anchor="start" style="white-space: pre;" direction="ltr" dominant-baseline="text-before-edge">Tek</text></g><g transform="translate(73.4188011859294 32.29984193901703) rotate(0 29.296875 12)"><text x="0" y="0" font-family="Cascadia, Segoe UI Emoji" font-size="20px" fill="#1e1e1e" text-anchor="start" style="white-space: pre;" direction="ltr" dominant-baseline="text-before-edge"> Toks</text></g></svg>