<svg version="1.1" xmlns="http://www.w3.org/2000/svg" viewBox="0 0 64.5963657092343 53.574855136722704" width="193.78909712770292" height="160.7245654101681" filter="invert(93%) hue-rotate(180deg)">
  <!-- svg-source:excalidraw -->
  
  <defs>
    <style class="style-fonts">
      @font-face {
        font-family: "Virgil";
        src: url("https://excalidraw.com/Virgil.woff2");
      }
      @font-face {
        font-family: "Cascadia";
        src: url("https://excalidraw.com/Cascadia.woff2");
      }
    </style>
  </defs>
  <g stroke-linecap="round" transform="translate(10 10) rotate(0 22.298182854617153 14.518419555528396)"><path d="M7.26 0 M7.26 0 C15.34 0, 23.42 0, 37.34 0 M7.26 0 C17.96 0, 28.65 0, 37.34 0 M37.34 0 C42.18 0, 44.6 2.42, 44.6 7.26 M37.34 0 C42.18 0, 44.6 2.42, 44.6 7.26 M44.6 7.26 C44.6 10.68, 44.6 14.1, 44.6 21.78 M44.6 7.26 C44.6 12, 44.6 16.75, 44.6 21.78 M44.6 21.78 C44.6 26.62, 42.18 29.04, 37.34 29.04 M44.6 21.78 C44.6 26.62, 42.18 29.04, 37.34 29.04 M37.34 29.04 C29.94 29.04, 22.55 29.04, 7.26 29.04 M37.34 29.04 C28.62 29.04, 19.9 29.04, 7.26 29.04 M7.26 29.04 C2.42 29.04, 0 26.62, 0 21.78 M7.26 29.04 C2.42 29.04, 0 26.62, 0 21.78 M0 21.78 C0 16.59, 0 11.41, 0 7.26 M0 21.78 C0 17.68, 0 13.57, 0 7.26 M0 7.26 C0 2.42, 2.42 0, 7.26 0 M0 7.26 C0 2.42, 2.42 0, 7.26 0" stroke="#1e1e1e" stroke-width="4" fill="none"></path></g><g stroke-linecap="round"><g transform="translate(29.3602555777793 17.75410800641862) rotate(0 0 5.10979246040165)"><path d="M0 0 C0 1.7, 0 8.52, 0 10.22 M0 0 C0 1.7, 0 8.52, 0 10.22" stroke="#1e1e1e" stroke-width="4" fill="none"></path></g></g><mask></mask><g stroke-linecap="round"><g transform="translate(18.392366875373227 39.16301248876243) rotate(0 3.9171132528549606 2.205921323980135)"><path d="M0 0 C1.31 0.74, 6.53 3.68, 7.83 4.41 M0 0 C1.31 0.74, 6.53 3.68, 7.83 4.41" stroke="#1e1e1e" stroke-width="4" fill="none"></path></g></g><mask></mask><g stroke-linecap="round"><g transform="translate(26.146752716490482 43.471470571882264) rotate(0 -0.9269868403728196 -1.7707826051934035)"><path d="M0 0 C-0.31 -0.59, -1.54 -2.95, -1.85 -3.54 M0 0 C-0.31 -0.59, -1.54 -2.95, -1.85 -3.54" stroke="#1e1e1e" stroke-width="4" fill="none"></path></g></g><mask></mask><g stroke-linecap="round"><g transform="translate(21.62933552794493 39.56181734446159) rotate(0 1.7673981927130171 1.2944311516510538)"><path d="M0 0 C0.59 0.48, 3.29 2.92, 3.52 2.87 C3.75 2.82, 1.73 0.24, 1.38 -0.28 M0 0 C0.59 0.48, 3.29 2.92, 3.52 2.87 C3.75 2.82, 1.73 0.24, 1.38 -0.28" stroke="#1e1e1e" stroke-width="4" fill="none"></path></g></g><mask></mask><g stroke-linecap="round"><g transform="translate(29.644177665501502 17.768438378438077) rotate(0 0 5.10979246040165)"><path d="M0 0 C0 1.7, 0 8.52, 0 10.22 M0 0 C0 1.7, 0 8.52, 0 10.22" stroke="#1e1e1e" stroke-width="4" fill="none"></path></g></g><mask></mask><g stroke-linecap="round"><g transform="translate(30.045883283833064 17.78002096974319) rotate(0 0 5.10979246040165)"><path d="M0 0 C0 1.7, 0 8.52, 0 10.22 M0 0 C0 1.7, 0 8.52, 0 10.22" stroke="#1e1e1e" stroke-width="4" fill="none"></path></g></g><mask></mask><g stroke-linecap="round"><g transform="translate(30.329805371555267 17.79435134176265) rotate(0 0 5.10979246040165)"><path d="M0 0 C0 1.7, 0 8.52, 0 10.22 M0 0 C0 1.7, 0 8.52, 0 10.22" stroke="#1e1e1e" stroke-width="4" fill="none"></path></g></g><mask></mask><g stroke-linecap="round"><g transform="translate(19.62219356383048 17.743569182585816) rotate(0 0 5.1097924604017635)"><path d="M0 0 C0 1.7, 0 8.52, 0 10.22 M0 0 C0 1.7, 0 8.52, 0 10.22" stroke="#1e1e1e" stroke-width="4" fill="none"></path></g></g><mask></mask><g stroke-linecap="round"><g transform="translate(19.906115651552682 17.757899554605274) rotate(0 0 5.1097924604017635)"><path d="M0 0 C0 1.7, 0 8.52, 0 10.22 M0 0 C0 1.7, 0 8.52, 0 10.22" stroke="#1e1e1e" stroke-width="4" fill="none"></path></g></g><mask></mask><g stroke-linecap="round"><g transform="translate(20.30782126988379 17.769482145910388) rotate(0 0 5.1097924604017635)"><path d="M0 0 C0 1.7, 0 8.52, 0 10.22 M0 0 C0 1.7, 0 8.52, 0 10.22" stroke="#1e1e1e" stroke-width="4" fill="none"></path></g></g><mask></mask><g stroke-linecap="round"><g transform="translate(20.591743357605992 17.78381251792962) rotate(0 0 5.1097924604017635)"><path d="M0 0 C0 1.7, 0 8.52, 0 10.22 M0 0 C0 1.7, 0 8.52, 0 10.22" stroke="#1e1e1e" stroke-width="4" fill="none"></path></g></g><mask></mask></svg>